<svg width="25" height="25" viewBox="0 0 25 25" fill="none" xmlns="http://www.w3.org/2000/svg">
<path d="M15.1263 19.5C15.1263 18.6364 15.8259 17.9369 16.6895 17.9369C17.5531 17.9369 18.2527 18.6364 18.2527 19.5C18.2527 20.3637 17.5531 21.0632 16.6895 21.0632C15.8259 21.0632 15.1263 20.3637 15.1263 19.5Z" stroke="white" stroke-width="2" stroke-linecap="round" stroke-linejoin="round"/>
<path d="M6.78955 19.5C6.78955 18.6364 7.48906 17.9369 8.35271 17.9369C9.21635 17.9369 9.91587 18.6364 9.91587 19.5C9.91587 20.3637 9.21635 21.0632 8.35271 21.0632C7.48906 21.0632 6.78955 20.3637 6.78955 19.5Z" stroke="white" stroke-width="2" stroke-linecap="round" stroke-linejoin="round"/>
<path d="M1.57898 3.34738H4.23635L6.46677 14.7163C6.71479 15.9835 7.80519 16.8947 9.07187 16.8947H19.2948" stroke="white" stroke-width="2" stroke-linecap="round" stroke-linejoin="round"/>
<path d="M4.70532 5.43158H21.379L20.6556 11.1288C20.5398 12.0415 19.7515 12.7263 18.8168 12.7263H6.0948" stroke="white" stroke-width="2" stroke-linecap="round" stroke-linejoin="round"/>
</svg>
